<?xml version="1.0" encoding="UTF-8"?>
<svg width="134px" height="52px" viewBox="0 0 134 52" version="1.1" xmlns="http://www.w3.org/2000/svg" xmlns:xlink="http://www.w3.org/1999/xlink">
    <title>Group 6 Copy 2</title>
    <defs>
        <radialGradient cx="81.1944247%" cy="6.02954501%" fx="81.1944247%" fy="6.02954501%" r="273.486393%" gradientTransform="translate(0.811944,0.060295),scale(0.291128,1.000000),rotate(3.433630),translate(-0.811944,-0.060295)" id="radialGradient-1">
            <stop stop-color="#E7C11F" offset="0%"></stop>
            <stop stop-color="#D08029" offset="100%"></stop>
        </radialGradient>
        <radialGradient cx="-79.9843886%" cy="89.4794069%" fx="-79.9843886%" fy="89.4794069%" r="485.520326%" gradientTransform="translate(-0.799844,0.894794),scale(1.000000,0.633169),rotate(3.433630),translate(0.799844,-0.894794)" id="radialGradient-2">
            <stop stop-color="#E7C11F" offset="0%"></stop>
            <stop stop-color="#D08029" offset="100%"></stop>
        </radialGradient>
        <radialGradient cx="-185.024839%" cy="129.564881%" fx="-185.024839%" fy="129.564881%" r="514.999941%" gradientTransform="translate(-1.850248,1.295649),scale(1.000000,0.600221),rotate(3.433630),translate(1.850248,-1.295649)" id="radialGradient-3">
            <stop stop-color="#E7C11F" offset="0%"></stop>
            <stop stop-color="#D08029" offset="100%"></stop>
        </radialGradient>
        <radialGradient cx="-440.058989%" cy="180.151724%" fx="-440.058989%" fy="180.151724%" r="786.102186%" gradientTransform="translate(-4.400590,1.801517),scale(1.000000,0.446395),rotate(3.433630),translate(4.400590,-1.801517)" id="radialGradient-4">
            <stop stop-color="#E7C11F" offset="0%"></stop>
            <stop stop-color="#D08029" offset="100%"></stop>
        </radialGradient>
        <radialGradient cx="-644.63124%" cy="238.736054%" fx="-644.63124%" fy="238.736054%" r="901.457224%" gradientTransform="translate(-6.446312,2.387361),scale(1.000000,0.422449),rotate(3.433630),translate(6.446312,-2.387361)" id="radialGradient-5">
            <stop stop-color="#E7C11F" offset="0%"></stop>
            <stop stop-color="#D08029" offset="100%"></stop>
        </radialGradient>
        <radialGradient cx="-892.353167%" cy="311.462528%" fx="-892.353167%" fy="311.462528%" r="1074.48164%" gradientTransform="translate(-8.923532,3.114625),scale(1.000000,0.394398),rotate(3.433630),translate(8.923532,-3.114625)" id="radialGradient-6">
            <stop stop-color="#E7C11F" offset="0%"></stop>
            <stop stop-color="#D08029" offset="100%"></stop>
        </radialGradient>
        <radialGradient cx="-1211.83019%" cy="486.422386%" fx="-1211.83019%" fy="486.422386%" r="1320.29466%" gradientTransform="translate(-12.118302,4.864224),scale(1.000000,0.447730),rotate(3.433630),translate(12.118302,-4.864224)" id="radialGradient-7">
            <stop stop-color="#E7C11F" offset="0%"></stop>
            <stop stop-color="#D08029" offset="100%"></stop>
        </radialGradient>
        <radialGradient cx="-46.5741%" cy="46.8076312%" fx="-46.5741%" fy="46.8076312%" r="889.99195%" gradientTransform="translate(-0.465741,0.468076),scale(0.294063,1.000000),rotate(3.433630),translate(0.465741,-0.468076)" id="radialGradient-8">
            <stop stop-color="#E7C11F" offset="0%"></stop>
            <stop stop-color="#D08029" offset="100%"></stop>
        </radialGradient>
        <radialGradient cx="-99.0198113%" cy="168.27027%" fx="-99.0198113%" fy="168.27027%" r="889.99195%" gradientTransform="translate(-0.990198,1.682703),scale(0.296698,1.000000),rotate(3.433630),translate(0.990198,-1.682703)" id="radialGradient-9">
            <stop stop-color="#E7C11F" offset="0%"></stop>
            <stop stop-color="#D08029" offset="100%"></stop>
        </radialGradient>
        <radialGradient cx="-197.520973%" cy="315.826549%" fx="-197.520973%" fy="315.826549%" r="990.805197%" gradientTransform="translate(-1.975210,3.158265),scale(0.343465,1.000000),rotate(3.433630),translate(1.975210,-3.158265)" id="radialGradient-10">
            <stop stop-color="#E7C11F" offset="0%"></stop>
            <stop stop-color="#D08029" offset="100%"></stop>
        </radialGradient>
        <radialGradient cx="-272.229443%" cy="331.873659%" fx="-272.229443%" fy="331.873659%" r="667.228768%" gradientTransform="translate(-2.722294,3.318737),scale(0.556366,1.000000),rotate(3.433630),translate(2.722294,-3.318737)" id="radialGradient-11">
            <stop stop-color="#E7C11F" offset="0%"></stop>
            <stop stop-color="#D08029" offset="100%"></stop>
        </radialGradient>
        <radialGradient cx="-448.090074%" cy="426.454002%" fx="-448.090074%" fy="426.454002%" r="668.823102%" gradientTransform="translate(-4.480901,4.264540),scale(0.769301,1.000000),rotate(3.433630),translate(4.480901,-4.264540)" id="radialGradient-12">
            <stop stop-color="#E7C11F" offset="0%"></stop>
            <stop stop-color="#D08029" offset="100%"></stop>
        </radialGradient>
        <radialGradient cx="-723.188755%" cy="619.685426%" fx="-723.188755%" fy="619.685426%" r="807.799331%" gradientTransform="translate(-7.231888,6.196854),scale(0.927711,1.000000),rotate(3.433630),translate(7.231888,-6.196854)" id="radialGradient-13">
            <stop stop-color="#E7C11F" offset="0%"></stop>
            <stop stop-color="#D08029" offset="100%"></stop>
        </radialGradient>
        <radialGradient cx="-1219.81935%" cy="510.382439%" fx="-1219.81935%" fy="510.382439%" r="1203.88158%" gradientTransform="translate(-12.198194,5.103824),scale(1.000000,0.453659),rotate(3.433630),translate(12.198194,-5.103824)" id="radialGradient-14">
            <stop stop-color="#E7C11F" offset="0%"></stop>
            <stop stop-color="#D08029" offset="100%"></stop>
        </radialGradient>
    </defs>
    <g id="Page-1" stroke="none" stroke-width="1" fill="none" fill-rule="evenodd">
        <g id="Group-6-Copy-2" transform="translate(0.000000, 0.000000)" fill-rule="nonzero">
            <g id="Group-6-Copy">
                <path d="M8.93113929,49.4236331 C8.97056222,49.8500885 8.84216965,50.2751121 8.5732355,50.608418 C8.27840592,50.9101836 7.867201,51.0692629 7.44604427,51.0444847 C6.71694687,51.0849018 6.08798683,50.53798 6.02677064,49.8103337 L6.55334172,49.8103337 C6.56056112,50.0175888 6.64577975,50.2144732 6.79194425,50.3615878 C6.97908346,50.5226922 7.21979887,50.6078232 7.46661345,50.6001903 C7.91090781,50.6001903 8.42102355,50.4109539 8.42102355,49.4688853 C8.42102355,49.2796488 8.42102355,49.0245909 8.42102355,48.7654192 C8.29745453,49.2608956 7.84539775,49.6033628 7.33497068,49.5881865 C6.42992663,49.5881865 5.92392472,48.7283947 5.92392472,47.5312682 C5.92392472,46.3341418 6.42169895,45.4702361 7.34319835,45.4702361 C7.86467954,45.4545638 8.33112649,45.7925689 8.47861726,46.2930034 C8.47861726,46.050287 8.47861726,45.8281399 8.47861726,45.5278298 L8.93525312,45.5278298 L8.93113929,49.4236331 Z M6.46283732,47.5271544 C6.46283732,48.4198569 6.80017192,49.1110036 7.44604427,49.1110036 C7.75226237,49.1132229 8.03438903,48.9452149 8.17830719,48.6749148 C8.37049062,48.3216023 8.45487607,47.9196987 8.42102355,47.5189267 C8.45627702,47.1193865 8.37178266,46.7183963 8.17830719,46.3670525 C8.03438903,46.0967524 7.75226237,45.9287444 7.44604427,45.9309636 C6.80017192,45.9309636 6.46283732,46.6221103 6.46283732,47.5189267 L6.46283732,47.5271544 Z" id="Shape" fill="#000000"></path>
                <polygon id="Path" fill="#000000" points="10.0171922 44.1208977 10.5355356 44.1208977 10.5355356 49.4976821 10.0171922 49.4976821"></polygon>
                <path d="M11.3953274,47.5271544 C11.3953274,46.3999632 11.8931016,45.4702361 13.0408621,45.4702361 C14.1886225,45.4702361 14.6575999,46.4081908 14.6575999,47.5271544 C14.6575999,48.646118 14.1639395,49.5840727 13.0408621,49.5840727 C11.9177847,49.5840727 11.3953274,48.646118 11.3953274,47.5271544 Z M11.9383539,47.5271544 C11.9383539,48.5761827 12.3044853,49.1315507 13.0326344,49.1315507 C13.7607835,49.1315507 14.1022319,48.5761827 14.1022319,47.5189267 C14.1022319,46.4616707 13.7361005,45.9104166 13.016179,45.9104166 C12.2962576,45.9104166 11.9383539,46.4657845 11.9383539,47.5189267 L11.9383539,47.5271544 Z" id="Shape" fill="#000000"></path>
                <path d="M15.4433426,44.1208977 L15.9616861,44.1208977 L15.9616861,45.5442851 C15.9616861,45.8939613 15.9616861,46.1119946 15.9616861,46.3012311 C16.0813308,45.8026173 16.5267447,45.4507062 17.0395113,45.4496669 C17.9281,45.4496669 18.454671,46.3094588 18.454671,47.5065852 C18.454671,48.7037117 17.8828478,49.5635035 17.0395113,49.5635035 C16.5146216,49.5719725 16.0544104,49.2144106 15.9328892,48.7037117 C15.9328892,48.9423142 15.9328892,49.1685752 15.9328892,49.4688853 L15.4556842,49.4688853 L15.4433426,44.1208977 Z M17.9116446,47.5148129 C17.9116446,46.6632487 17.5948792,45.9309858 16.9366653,45.9309858 C16.2085163,45.9309858 15.9534584,46.7290701 15.9534584,47.5189267 C15.9534584,48.3087833 16.2085163,49.1109815 16.9366653,49.1109815 C17.5948792,49.1109815 17.9116446,48.3787186 17.9116446,47.5189267 L17.9116446,47.5148129 Z" id="Shape" fill="#000000"></path>
                <path d="M22.0131397,49.4976821 L21.5318208,49.4976821 C21.5318208,49.148006 21.5318208,48.9299727 21.5318208,48.7407362 C21.3944871,49.2456808 20.9319545,49.5930038 20.4087434,49.5840727 C19.5859761,49.5840727 18.9976975,48.7613054 18.9976975,47.5271544 C18.9976975,46.2930034 19.5407239,45.4702361 20.4087434,45.4702361 C20.9361715,45.4594263 21.4000318,45.8171636 21.5235932,46.3300279 C21.5235932,46.0873116 21.5235932,45.8651644 21.5235932,45.5648543 L22.004912,45.5648543 L22.0131397,49.4976821 Z M19.5448377,47.5271544 C19.5448377,48.4198569 19.8862862,49.1110036 20.5321585,49.1110036 C20.8383766,49.1132229 21.1205033,48.9452149 21.2644215,48.6749148 C21.4566049,48.3216023 21.5409903,47.9196987 21.5071378,47.5189267 C21.5423913,47.1193865 21.4578969,46.7183963 21.2644215,46.3670525 C21.1205033,46.0967524 20.8383766,45.9287444 20.5321585,45.9309636 C19.8862862,45.9309636 19.5448377,46.6221103 19.5448377,47.5189267 L19.5448377,47.5271544 Z" id="Shape" fill="#000000"></path>
                <polygon id="Path" fill="#000000" points="23.0991926 44.1208977 23.617536 44.1208977 23.617536 49.4976821 23.0991926 49.4976821"></polygon>
                <path d="M29.3439966,49.4976821 L28.8626777,49.4976821 C28.8626777,49.148006 28.8626777,48.9299727 28.8626777,48.7407362 C28.7292408,49.2459479 28.2703477,49.5964677 27.747828,49.5923371 C26.9250606,49.5923371 26.336782,48.769533 26.336782,47.5353821 C26.336782,46.3012311 26.8633531,45.4578946 27.747828,45.4578946 C28.275256,45.4470848 28.7391163,45.8048221 28.8626777,46.3176864 C28.8626777,46.0749701 28.8626777,45.8528229 28.8626777,45.5525128 L29.3439966,45.5525128 L29.3439966,49.4976821 Z M26.8756946,47.5271544 C26.8756946,48.4198569 27.2130292,49.1109815 27.8589015,49.1109815 C28.166592,49.1147643 28.4506761,48.9465357 28.5952783,48.6749148 C28.7837993,48.3203592 28.8666111,47.9191499 28.8338808,47.5189267 C28.868174,47.1199281 28.7852481,46.7195966 28.5952783,46.3670525 C28.4506761,46.0954315 28.166592,45.927203 27.8589015,45.9309858 C27.2130292,45.9309858 26.8756946,46.6221103 26.8756946,47.5189267 L26.8756946,47.5271544 Z" id="Shape" fill="#000000"></path>
                <path d="M33.1616369,49.4236331 C33.2010599,49.8500885 33.0726673,50.2751121 32.8037332,50.608418 C32.5089036,50.9101836 32.0976986,51.0692629 31.6765419,51.0444847 C30.9474445,51.0849018 30.3184845,50.53798 30.2572683,49.8103337 L30.7838394,49.8103337 C30.7933996,50.0170542 30.8782693,50.2131324 31.0224419,50.3615878 C31.2095811,50.5226922 31.4502965,50.6078232 31.6971111,50.6001903 C32.1414055,50.6001903 32.6515212,50.4109539 32.6515212,49.4688853 C32.6515212,49.2796488 32.6515212,49.0245909 32.6515212,48.7654192 C32.5279522,49.2608956 32.0758954,49.6033628 31.5654683,49.5881865 C30.6604243,49.5881865 30.1544224,48.7283947 30.1544224,47.5312682 C30.1544224,46.3341418 30.6604243,45.4537807 31.5654683,45.4537807 C32.0990154,45.4405777 32.5712586,45.7968911 32.7050011,46.3135726 C32.7050011,46.0708562 32.7050011,45.8487091 32.7050011,45.548399 L33.1616369,45.548399 L33.1616369,49.4236331 Z M30.693335,47.5271544 C30.693335,48.4198569 31.0306696,49.1109815 31.6765419,49.1109815 C31.9842324,49.1147643 32.2683165,48.9465357 32.4129187,48.6749148 C32.6014396,48.3203592 32.6842515,47.9191499 32.6515212,47.5189267 C32.6858143,47.1199281 32.6028885,46.7195966 32.4129187,46.3670525 C32.2683165,46.0954315 31.9842324,45.927203 31.6765419,45.9309858 C31.0306696,45.9309858 30.693335,46.6221103 30.693335,47.5189267 L30.693335,47.5271544 Z" id="Shape" fill="#000000"></path>
                <path d="M34.1654131,45.5442851 L34.646732,45.5442851 C34.646732,45.9104166 34.646732,46.1325638 34.646732,46.3670525 C34.7574962,45.8442686 35.218965,45.4702903 35.753354,45.4702361 L35.753354,46.0379455 C35.6948875,46.0034922 35.6278306,45.9863713 35.5600037,45.9885795 C35.2062137,45.9885795 34.6837565,46.3999632 34.6837565,47.3955116 L34.6837565,49.5182513 L34.1654131,49.5182513 L34.1654131,45.5442851 Z" id="Path" fill="#000000"></path>
                <path d="M36.3745433,44.1208977 L37.3745433,44.1208977 L37.3745433,44.8325914 L36.3745433,44.8325914 L36.3745433,44.1208977 Z M36.3745433,45.5442851 L37.3745433,45.5442851 L37.3745433,49.4976821 L36.3745433,49.4976821 L36.3745433,45.5442851 Z" id="Shape" fill="#000000"></path>
                <path d="M40.7516655,48.1524576 C40.6611611,48.9752249 40.1962975,49.5923004 39.3570749,49.5923004 C38.2339975,49.5923004 37.7321094,48.6049796 37.7321094,47.5353821 C37.7321094,46.2436374 38.3820956,45.4578946 39.3365057,45.4578946 C40.2004114,45.4578946 40.6899579,46.0831977 40.7310963,46.9183066 L40.2004114,46.9183066 C40.1181347,46.1325638 39.7149787,45.9186443 39.3200503,45.9186443 C39.0060455,45.8973512 38.7074048,46.0570521 38.5507629,46.3300279 C38.3511236,46.6932398 38.2570751,47.1050584 38.2792497,47.5189267 C38.2792497,48.5597274 38.6618365,49.1315507 39.328278,49.1315507 C39.8466214,49.1315507 40.1510453,48.7407362 40.2168667,48.1524576 L40.7516655,48.1524576 Z" id="Path" fill="#000000"></path>
                <path d="M44.2689958,49.4976821 L43.7753354,49.4976821 C43.7753354,49.2714211 43.7753354,49.0533878 43.7753354,48.8065576 C43.6007255,49.2881853 43.135441,49.6022523 42.6234611,49.5840727 C41.8994259,49.5840727 41.4139932,49.172689 41.4139932,48.2306205 L41.4139932,45.5360575 L41.9323366,45.5360575 L41.9323366,48.0784085 C41.9323366,48.4897922 41.9940441,49.1027538 42.7551039,49.1027538 C43.3639517,49.1027538 43.7629939,48.6913702 43.7629939,47.8686028 L43.7629939,45.5278298 L44.2689958,45.5278298 L44.2689958,49.4976821 Z" id="Path" fill="#000000"></path>
                <polygon id="Path" fill="#000000" points="45.3427072 44.1208977 45.8610506 44.1208977 45.8610506 49.4976821 45.3427072 49.4976821"></polygon>
                <polygon id="Path" fill="#000000" points="47.1486814 46.000921 46.556289 46.000921 46.556289 45.5442851 47.1486814 45.5442851 47.1486814 44.3101342 47.6670248 44.3101342 47.6670248 45.5442851 48.2470758 45.5442851 48.2470758 46.000921 47.6670248 46.000921 47.6670248 49.4976821 47.1486814 49.4976821"></polygon>
                <path d="M51.7109262,49.4976821 L51.2296073,49.4976821 C51.2296073,49.2714211 51.2296073,49.0533878 51.2296073,48.8065576 C51.0540724,49.2911674 50.5844642,49.6059048 50.0695054,49.5840727 C49.349584,49.5840727 48.8600375,49.172689 48.8600375,48.2306205 L48.8600375,45.5360575 L49.3783809,45.5360575 L49.3783809,48.0784085 C49.3783809,48.4897922 49.4400884,49.1027538 50.2011482,49.1027538 C50.8141098,49.1027538 51.2090382,48.6913702 51.2090382,47.8686028 L51.2090382,45.5278298 L51.7273816,45.5278298 L51.7109262,49.4976821 Z" id="Path" fill="#000000"></path>
                <path d="M52.7352715,45.5442851 L53.2165904,45.5442851 C53.2165904,45.9104166 53.2165904,46.1325638 53.2165904,46.3670525 C53.3164749,45.8267093 53.7901944,45.4362811 54.3396678,45.4414392 L54.3396678,46.0091487 C54.2812013,45.9746954 54.2141444,45.9575744 54.1463175,45.9597826 C53.7884137,45.9597826 53.2700703,46.3711663 53.2700703,47.3667148 L53.2700703,49.4894545 L52.7517269,49.4894545 L52.7352715,45.5442851 Z" id="Path" fill="#000000"></path>
                <path d="M55.1212968,47.6670248 C55.1212968,48.4897922 55.4792006,49.1315507 56.1908943,49.1315507 C56.6560162,49.1403638 57.0579331,48.8083454 57.1370767,48.3499217 L57.6471925,48.3499217 C57.5859807,48.7119397 57.3996215,49.04098 57.1206214,49.2796488 C56.8563651,49.4817424 56.5317617,49.5889774 56.199122,49.5840727 C55.0349062,49.5840727 54.586498,48.5350444 54.586498,47.5271544 C54.586498,46.2930034 55.191232,45.4496669 56.1826666,45.4496669 C56.6296016,45.4352399 57.0541593,45.645203 57.3139717,46.0091487 C57.6141458,46.5027597 57.7495717,47.0790401 57.7006723,47.6546833 L55.1212968,47.6670248 Z M57.1782151,47.2556412 C57.1782151,46.4328739 56.7997421,45.8816197 56.1620974,45.8816197 C55.5244528,45.8816197 55.1500936,46.4698984 55.1336383,47.2556412 L57.1782151,47.2556412 Z" id="Shape" fill="#000000"></path>
                <path d="M64.4267952,46.227182 L63.4970681,48.0002456 L64.607804,49.2343966 L64.1964203,49.5676174 L63.2173272,48.4774506 C62.9334725,48.8888343 62.5138612,49.6128696 61.6705247,49.6128696 C61.260457,49.6207101 60.8647562,49.4618341 60.5739671,49.172596 C60.2831781,48.8833578 60.1221884,48.4885122 60.1278359,48.0784085 C60.1576721,47.3212222 60.6469476,46.6590694 61.3619869,46.4081908 C61.0069165,46.117038 60.7819995,45.6967983 60.7366838,45.2398612 C60.8307736,44.6475356 61.3370783,44.2086006 61.9367608,44.1994684 C62.5364434,44.1903362 63.0558788,44.6136507 63.1679612,45.2028367 C63.1679612,45.8281399 62.6578455,46.2724342 62.1353882,46.5316059 L63.1309367,47.6300003 L63.8344027,46.2477512 L64.4267952,46.227182 Z M61.7404599,46.7866638 C60.9506033,47.1527953 60.7407976,47.6094311 60.7325699,48.0208148 C60.7191365,48.2955311 60.8180979,48.5638818 61.0066763,48.7641009 C61.1952548,48.96432 61.4572043,49.0791587 61.7322322,49.0821846 C62.3739907,49.0821846 62.6989838,48.3992878 62.871765,48.0742947 L61.7404599,46.7866638 Z M61.9790624,44.4788015 C61.7944445,44.4705312 61.6148541,44.5402529 61.4841786,44.6709284 C61.3535031,44.8016039 61.2837814,44.9811943 61.2920517,45.1658122 C61.2920517,45.5771958 61.5553372,45.8281399 61.8556473,46.1407915 C62.3904461,45.8569367 62.6537316,45.5813097 62.6537316,45.1740398 C62.6581434,44.9933023 62.590271,44.8182725 62.4651637,44.6877593 C62.3400564,44.5572462 62.1680525,44.4820347 61.9872901,44.4788015 L61.9790624,44.4788015 Z" id="Shape" fill="#000000"></path>
                <path d="M67.2735701,46.000921 L66.8004789,46.000921 L66.8004789,45.5442851 L67.2735701,45.5442851 L67.2735701,45.2480889 C67.2433976,44.9087319 67.3666496,44.5736763 67.6095405,44.3347672 C67.8524315,44.0958582 68.1894784,43.9781607 68.5282903,44.0139379 L68.5282903,44.4458908 C68.1415897,44.4458908 67.7919135,44.6392411 67.7919135,45.2686581 L67.7919135,45.5196021 L68.5406318,45.5196021 L68.5406318,45.976238 L67.8042551,45.976238 L67.8042551,49.4729991 L67.2859116,49.4729991 L67.2735701,46.000921 Z" id="Path" fill="#000000"></path>
                <path d="M68.7134129,47.5271544 C68.7134129,46.3999632 69.2111872,45.4702361 70.3589476,45.4702361 C71.506708,45.4702361 71.9756854,46.4081908 71.9756854,47.5271544 C71.9756854,48.646118 71.482025,49.5840727 70.3589476,49.5840727 C69.2358702,49.5840727 68.7134129,48.646118 68.7134129,47.5271544 Z M69.2564394,47.5271544 C69.2564394,48.5761827 69.6225708,49.1315507 70.3507199,49.1315507 C71.078869,49.1315507 71.4203174,48.5761827 71.4203174,47.5189267 C71.4203174,46.4616707 71.054186,45.9104166 70.3342646,45.9104166 C69.6143432,45.9104166 69.2564394,46.4657845 69.2564394,47.5189267 L69.2564394,47.5271544 Z" id="Shape" fill="#000000"></path>
                <path d="M72.5351672,47.5271544 C72.5351672,46.3999632 73.0329414,45.4702361 74.1807018,45.4702361 C75.3284622,45.4702361 75.7974396,46.4081908 75.7974396,47.5271544 C75.7974396,48.646118 75.3037792,49.5840727 74.1807018,49.5840727 C73.0576244,49.5840727 72.5351672,48.646118 72.5351672,47.5271544 Z M73.0781936,47.5271544 C73.0781936,48.5761827 73.4443251,49.1315507 74.1724741,49.1315507 C74.9006232,49.1315507 75.2379578,48.5761827 75.2379578,47.5189267 C75.2379578,46.4616707 74.8759402,45.9104166 74.1560188,45.9104166 C73.4360974,45.9104166 73.0658521,46.4657845 73.0658521,47.5271544 L73.0781936,47.5271544 Z" id="Shape" fill="#000000"></path>
                <path d="M79.3559083,49.4976821 L78.8745894,49.4976821 C78.8745894,49.1315507 78.8745894,48.9135173 78.8745894,48.7119393 C78.753725,49.2294569 78.2911781,49.5947153 77.7597397,49.5923123 C76.9369723,49.5923123 76.3486937,48.769533 76.3486937,47.5353821 C76.3486937,46.3012311 76.8752648,45.4578946 77.7597397,45.4578946 C78.2676454,45.4477641 78.7157329,45.788515 78.8416787,46.2806619 C78.8416787,46.050287 78.8416787,45.8322537 78.8416787,45.5401713 L78.8416787,44.1167838 L79.3641359,44.1167838 L79.3559083,49.4976821 Z M76.8876063,47.5189267 C76.8876063,48.4157431 77.2290547,49.1027538 77.8708133,49.1027538 C78.1785037,49.1065366 78.4625878,48.9383081 78.60719,48.6666871 C78.925463,47.930319 78.925463,47.0951929 78.60719,46.3588248 C78.4522563,46.1006033 78.1719294,45.9439961 77.8708133,45.9474411 C77.2290547,45.9474411 76.8876063,46.630338 76.8876063,47.5312682 L76.8876063,47.5189267 Z" id="Shape" fill="#000000"></path>
                <path d="M83.9428361,46.5686305 C83.9692112,46.3806579 83.9057988,46.1912083 83.7715801,46.0569896 C83.6373614,45.9227708 83.4479117,45.8593584 83.2599392,45.8857336 C83.0990729,45.8752185 82.9412414,45.9330951 82.8253075,46.0451123 C82.7093735,46.1571296 82.646109,46.3128796 82.6510914,46.4740122 C82.6510914,46.9183066 83.0624751,47.0787462 83.5561354,47.2227305 C84.181457,47.3229984 84.6194602,47.8943982 84.5538455,48.5242993 C84.4882308,49.1542004 83.941867,49.623062 83.3093053,49.5923004 C82.9616723,49.6235179 82.6175015,49.5030335 82.3652423,49.2618106 C82.112983,49.0205877 81.9772325,48.6821474 81.9928775,48.3334664 L82.5029933,48.3334664 C82.4794236,48.5580793 82.558502,48.7813303 82.7181993,48.9410276 C82.8778967,49.100725 83.1011477,49.1798034 83.3257606,49.1562337 C83.5156124,49.1733691 83.7034934,49.1068321 83.8402463,48.9740317 C83.9769992,48.8412312 84.0490161,48.6553817 84.0374543,48.4651091 C84.0374543,47.9879041 83.6795505,47.7986676 83.1159549,47.6423418 C82.5523593,47.486016 82.1204065,47.2309582 82.1204065,46.5192644 C82.1992135,45.9164999 82.722821,45.4720914 83.3303792,45.4923079 C83.9379373,45.5125243 84.430844,45.9907573 84.4694072,46.5974273 L83.9428361,46.5686305 Z" id="Path" fill="#000000"></path>
                <path d="M85.7035582,47.6670248 C85.7035582,48.4897922 86.0573481,49.1315507 86.7731557,49.1315507 C87.2379682,49.1418457 87.6395573,48.8086495 87.7152243,48.3499217 L88.2294538,48.3499217 C88.168242,48.7119397 87.9818829,49.04098 87.7028828,49.2796488 C87.4374858,49.48645 87.1095821,49.5967185 86.7731557,49.5923004 C85.6089399,49.5923004 85.1605317,48.543272 85.1605317,47.5353821 C85.1605317,46.3012311 85.7652657,45.4578946 86.7567003,45.4578946 C87.2031553,45.4456683 87.6267353,45.6551479 87.8880054,46.0173764 C88.1881795,46.5109874 88.3236054,47.0872677 88.274706,47.662911 L85.7035582,47.6670248 Z M87.7604765,47.2556412 C87.7604765,46.4328739 87.3820035,45.8816197 86.7443588,45.8816197 C86.1067141,45.8816197 85.7282412,46.4698984 85.7158997,47.2556412 L87.7604765,47.2556412 Z" id="Shape" fill="#000000"></path>
                <path d="M91.8455162,48.1524576 C91.7550118,48.9752249 91.2901483,49.5923004 90.4509256,49.5923004 C89.3278482,49.5923004 88.8259602,48.6049796 88.8259602,47.5353821 C88.8259602,46.2436374 89.4759463,45.4578946 90.4303564,45.4578946 C91.298376,45.4578946 91.7838087,46.0831977 91.824947,46.9183066 L91.298376,46.9183066 C91.2119854,46.1325638 90.8088294,45.9186443 90.4139011,45.9186443 C90.1013348,45.8989648 89.8047012,46.0584452 89.6487275,46.3300279 C89.4471944,46.6925167 89.3530197,47.1048877 89.3772143,47.5189267 C89.3772143,48.5597274 89.7556872,49.1315507 90.4221288,49.1315507 C90.9404722,49.1315507 91.2448961,48.7407362 91.3148313,48.1524576 L91.8455162,48.1524576 Z" id="Path" fill="#000000"></path>
                <path d="M95.350505,49.4976821 L94.8691861,49.4976821 C94.8691861,49.2714211 94.8691861,49.0533878 94.8691861,48.8065576 C94.694725,49.3004692 94.2156937,49.6203817 93.6926289,49.5923004 C92.9727075,49.5923004 92.4831609,49.1809167 92.4831609,48.2388481 L92.4831609,45.5442851 L93.0015043,45.5442851 L93.0015043,48.0866362 C93.0015043,48.4980198 93.0632119,49.1109815 93.8242716,49.1109815 C94.4372333,49.1109815 94.8321616,48.6995978 94.8321616,47.8768305 L94.8321616,45.5360575 L95.350505,45.5360575 L95.350505,49.4976821 Z" id="Path" fill="#000000"></path>
                <path d="M96.3748503,45.5442851 L96.8561692,45.5442851 C96.8561692,45.9104166 96.8561692,46.1325638 96.8561692,46.3670525 C96.9560537,45.8267093 97.4297732,45.4362811 97.9792466,45.4414392 L97.9792466,46.0091487 C97.9207801,45.9746954 97.8537232,45.9575744 97.7858963,45.9597826 C97.4279925,45.9597826 96.9096491,46.3711663 96.9096491,47.3667148 L96.9096491,49.4894545 L96.3913057,49.4894545 L96.3748503,45.5442851 Z" id="Path" fill="#000000"></path>
                <path d="M98.5716391,44.1208977 L99.5716391,44.1208977 L99.5716391,44.8325914 L98.5716391,44.8325914 L98.5716391,44.1208977 Z M98.5716391,45.5442851 L99.5716391,45.5442851 L99.5716391,49.4976821 L98.5716391,49.4976821 L98.5716391,45.5442851 Z" id="Shape" fill="#000000"></path>
                <polygon id="Path" fill="#000000" points="100.389955 46.000921 99.8057901 46.000921 99.8057901 45.5442851 100.398183 45.5442851 100.398183 44.3101342 100.916526 44.3101342 100.916526 45.5442851 101.496577 45.5442851 101.496577 46.000921 100.916526 46.000921 100.916526 49.4976821 100.398183 49.4976821"></polygon>
                <polygon id="Path" fill="#000000" points="102.874712 49.4030639 101.66113 45.5442851 102.204157 45.5442851 103.137998 48.6913702 104.129432 45.5442851 104.664231 45.5442851 102.854143 50.9580941 102.3358 50.9580941"></polygon>
                <path d="M107.083167,45.5442851 L107.564486,45.5442851 C107.564486,45.8445952 107.564486,46.0626286 107.564486,46.3012311 C107.690972,45.7931698 108.151743,45.4399122 108.675222,45.4496669 C109.497989,45.4496669 110.090382,46.2724342 110.090382,47.5271544 C110.090382,48.7818746 109.563811,49.5840727 108.675222,49.5840727 C108.17318,49.5793651 107.734301,49.2443425 107.597397,48.7613054 C107.597397,48.9340865 107.597397,49.1397783 107.597397,49.4812268 L107.597397,50.9416388 L107.079053,50.9416388 L107.083167,45.5442851 Z M109.551469,47.5148129 C109.551469,46.6221103 109.218248,45.9309858 108.568262,45.9309858 C108.266474,45.9333042 107.990176,46.1006617 107.848341,46.3670525 C107.654457,46.7209386 107.575388,47.1263476 107.62208,47.5271544 C107.588653,47.9298911 107.67908,48.3332266 107.881251,48.6831425 C108.023087,48.9495333 108.299385,49.1168907 108.601173,49.1192092 C109.251159,49.1192092 109.58438,48.4280846 109.58438,47.5271544 L109.551469,47.5148129 Z" id="Shape" fill="#000000"></path>
                <path d="M110.880238,45.5442851 L111.361557,45.5442851 C111.361557,45.9104166 111.361557,46.1325638 111.361557,46.3670525 C111.458324,45.8248801 111.933961,45.4328715 112.484635,45.4414392 L112.484635,46.0091487 C112.424718,45.9745686 112.356311,45.957467 112.28717,45.9597826 C111.93338,45.9597826 111.415037,46.3711663 111.415037,47.3667148 L111.415037,49.4894545 L110.89258,49.4894545 L110.880238,45.5442851 Z" id="Path" fill="#000000"></path>
                <path d="M112.710896,47.5271544 C112.710896,46.3999632 113.20867,45.4702361 114.35643,45.4702361 C115.504191,45.4702361 115.973168,46.4081908 115.973168,47.5271544 C115.973168,48.646118 115.479508,49.5840727 114.35643,49.5840727 C113.233353,49.5840727 112.710896,48.646118 112.710896,47.5271544 Z M113.253922,47.5271544 C113.253922,48.5761827 113.61594,49.1315507 114.344089,49.1315507 C115.072238,49.1315507 115.413686,48.5761827 115.413686,47.5189267 C115.413686,46.4616707 115.051669,45.9104166 114.331747,45.9104166 C113.611826,45.9104166 113.253922,46.4657845 113.253922,47.5189267 L113.253922,47.5271544 Z" id="Shape" fill="#000000"></path>
                <path d="M119.552206,49.4236331 C119.591629,49.8500885 119.463236,50.2751121 119.194302,50.608418 C118.898204,50.9108371 118.485471,51.069927 118.062997,51.0444847 C117.334654,51.0827053 116.70701,50.5369277 116.643723,49.8103337 L117.170294,49.8103337 C117.178614,50.0181585 117.265337,50.2151204 117.413011,50.3615878 C117.599315,50.5241265 117.840613,50.6094634 118.08768,50.6001903 C118.52786,50.6001903 119.04209,50.4109539 119.04209,49.4688853 C119.04209,49.2796488 119.04209,49.0245909 119.04209,48.7654192 C118.920227,49.2602603 118.469562,49.6029711 117.960151,49.5881865 C117.050993,49.5881865 116.549105,48.7283947 116.549105,47.5312682 C116.549105,46.3341418 117.050993,45.4537807 117.960151,45.4537807 C118.492671,45.4409841 118.963513,45.7975275 119.09557,46.3135726 C119.09557,46.0708562 119.09557,45.8487091 119.09557,45.548399 L119.552206,45.548399 L119.552206,49.4236331 Z M117.083904,47.5271544 C117.083904,48.4198569 117.425352,49.1109815 118.067111,49.1109815 C118.374801,49.1147643 118.658885,48.9465357 118.803488,48.6749148 C118.995671,48.3216023 119.080056,47.9196987 119.046204,47.5189267 C119.081457,47.1193865 118.996963,46.7183963 118.803488,46.3670525 C118.658885,46.0954315 118.374801,45.927203 118.067111,45.9309858 C117.425352,45.9309858 117.083904,46.6221103 117.083904,47.5189267 L117.083904,47.5271544 Z" id="Shape" fill="#000000"></path>
                <path d="M120.555982,45.5442851 L121.033187,45.5442851 C121.033187,45.9104166 121.033187,46.1325638 121.033187,46.3670525 C121.141365,45.840981 121.606868,45.4651306 122.143923,45.4702361 L122.143923,46.0379455 C122.085456,46.0034922 122.018399,45.9863713 121.950573,45.9885795 C121.592669,45.9885795 121.074325,46.3999632 121.074325,47.3955116 L121.074325,49.5182513 L120.555982,49.5182513 L120.555982,45.5442851 Z" id="Path" fill="#000000"></path>
                <path d="M125.381512,49.4976821 L124.900193,49.4976821 C124.900193,49.148006 124.900193,48.9299727 124.900193,48.7407362 C124.766756,49.2459479 124.307863,49.5964677 123.785344,49.5923371 C122.962576,49.5923371 122.374298,48.769533 122.374298,47.5353821 C122.374298,46.3012311 122.900869,45.4578946 123.785344,45.4578946 C124.305076,45.4458672 124.765621,45.7908516 124.900193,46.2930034 C124.900193,46.050287 124.900193,45.8281399 124.900193,45.5278298 L125.381512,45.5278298 L125.381512,49.4976821 Z M122.91321,47.5271544 C122.91321,48.4198569 123.254659,49.1110036 123.900531,49.1110036 C124.206749,49.1132229 124.488876,48.9452149 124.632794,48.6749148 C124.824977,48.3216023 124.909363,47.9196987 124.87551,47.5189267 C124.910764,47.1193865 124.82627,46.7183963 124.632794,46.3670525 C124.488876,46.0967524 124.206749,45.9287444 123.900531,45.9309636 C123.254659,45.9309636 122.91321,46.6221103 122.91321,47.5189267 L122.91321,47.5271544 Z" id="Shape" fill="#000000"></path>
                <path d="M126.422313,45.5442851 L126.915973,45.5442851 C126.915973,45.749977 126.915973,45.9556688 126.915973,46.1942713 C127.05376,45.7259424 127.498534,45.4163114 127.985571,45.4496669 C128.257414,45.4383611 128.522512,45.5361068 128.721948,45.7211801 C128.846895,45.8510159 128.928776,46.0162152 128.956436,46.1942713 C129.019428,45.9964691 129.13969,45.8218029 129.301999,45.6923833 C129.529495,45.5323305 129.801365,45.4474611 130.079514,45.4496669 C130.47489,45.4316472 130.849789,45.6261552 131.062721,45.9597826 C131.21644,46.2986458 131.282909,46.6705916 131.256071,47.0417217 L131.256071,49.5100236 L130.737728,49.5100236 L130.737728,47.0910877 C130.749692,46.8425457 130.720502,46.5937349 130.651337,46.354711 C130.551953,46.0907338 130.290941,45.9234187 130.009578,45.9433273 C129.742123,45.9268451 129.484707,46.0477995 129.326682,46.2642066 C129.163666,46.5218168 129.08461,46.8236666 129.100421,47.1281122 L129.100421,49.5100236 L128.582077,49.5100236 L128.582077,47.1157707 C128.596296,46.8606521 128.5685,46.6049306 128.4998,46.3588248 C128.399772,46.0972636 128.141694,45.9307618 127.862156,45.9474411 C127.598899,45.9336548 127.344977,46.0468488 127.179259,46.251865 C127.018185,46.5101601 126.940617,46.8118153 126.957112,47.1157707 L126.957112,49.4853406 L126.422313,49.4853406 L126.422313,45.5442851 Z" id="Path" fill="#000000"></path>
                <path d="M0,24.8640285 C9.13683112,28.5376846 20.8160133,27.3611273 28.7516041,21.0792988 L28.9243852,21.0175913 C23.5763976,26.8674669 15.1224634,29.8458846 7.29383232,29.3933626 C5.15442173,29.2252146 3.0318171,28.8868085 0.946182421,28.3813588 L0,24.8640285 Z" id="Path" fill="url(#radialGradient-1)"></path>
                <polygon id="Path" fill="url(#radialGradient-2)" points="27.2788506 22.3134498 30.8126362 19.7752126 32.0221042 14.8221533 29.0971664 16.767998"></polygon>
                <polygon id="Path" fill="url(#radialGradient-3)" points="31.7588187 19.3226906 35.2926043 16.7844534 36.2305591 11.8725325 33.0752464 14.1721671"></polygon>
                <polygon id="Path" fill="url(#radialGradient-4)" points="36.3745433 16.26611 39.0608786 13.9376784 39.303595 9.70454057 37.1602861 11.5845639"></polygon>
                <polygon id="Path" fill="url(#radialGradient-5)" points="39.9535812 13.1313665 42.5082737 10.5190802 41.9076536 7.08402665 40.0811101 9.28904307"></polygon>
                <polygon id="Path" fill="url(#radialGradient-6)" points="43.1664876 10.0295337 44.7544285 7.53654868 43.9563442 4.5951555 42.6111196 6.5163172"></polygon>
                <polygon id="Path" fill="url(#radialGradient-7)" points="45.3180241 6.46695116 46.3670525 4.58281399 45.799343 2.57114788 44.6227857 4.31541461"></polygon>
                <polygon id="Path" fill="url(#radialGradient-8)" points="27.5832745 22.8523624 31.1170601 20.3141252 36.382771 20.6267768 33.4208086 22.9017284"></polygon>
                <polygon id="Path" fill="url(#radialGradient-9)" points="32.1208363 19.7093912 35.6546219 17.171154 40.8421699 17.3850735 37.9583704 19.7587573"></polygon>
                <polygon id="Path" fill="url(#radialGradient-10)" points="36.8517484 16.5088263 39.7190925 14.3079237 43.6190096 14.1845086 41.2700089 16.4142081"></polygon>
                <polygon id="Path" fill="url(#radialGradient-11)" points="40.3731925 13.5221809 42.7756731 11.0579928 46.5768581 10.070672 44.1579222 13.2013017"></polygon>
                <polygon id="Path" fill="url(#radialGradient-12)" points="43.5408467 10.2845915 45.3920732 7.56123169 48.0167009 6.84131029 46.8442575 9.14505879"></polygon>
                <polygon id="Path" fill="url(#radialGradient-13)" points="45.7088386 6.70966752 46.78255 4.72679827 48.7818746 3.85877874 48.2059374 5.80050962"></polygon>
                <polygon id="Path" fill="url(#radialGradient-14)" points="46.8195745 4.21668253 48.4363123 2.56292021 48.7325085 0 47.1610229 1.6743315"></polygon>
                <path d="M23.2431769,25.9994474 L23.2431769,29.2905167 L28.8379947,29.2905167 C26.9948072,33.1518397 22.8953597,35.408647 18.6469119,34.9008605 C14.3984641,34.393074 10.9463756,31.2336858 10.0651409,27.0467321 C9.18390618,22.8597784 11.0696166,18.5769353 14.7529508,16.3997342 C18.4362851,14.2225331 23.097632,14.6354423 26.3408958,17.4262119 L26.4766524,17.5413993 L29.4715255,14.9661376 L29.3028582,14.8098118 C24.7385866,10.5684478 17.9100634,9.88114706 12.592107,13.1278506 C7.27415065,16.3745541 4.76520932,22.7625369 6.45222977,28.760512 C8.13925021,34.7584872 13.6103244,38.901971 19.841034,38.9004394 C27.0333748,38.861752 33.0239516,33.3746897 33.6923219,26.2133669 L33.712891,25.9912197 L23.2431769,25.9994474 Z" id="Path" fill="#000000"></path>
                <path d="M43.232309,38.4026648 L38.5836736,38.4026648 L49.6169834,11.5269702 L53.5004452,11.5269702 L64.3609738,38.4026648 L59.7123384,38.4026648 L57.1699874,32.0467872 L45.6923833,32.0467872 L43.232309,38.4026648 Z M51.4023885,16.5047125 L46.8771682,28.5993921 L56.0304547,28.5993921 L51.4023885,16.5047125 Z" id="Shape" fill="#000000"></path>
                <polygon id="Path" fill="#000000" points="70.8731772 11.5269702 84.8931323 11.5269702 84.8931323 15.3034722 75.1597949 15.3034722 75.1597949 23.1485586 84.7491481 23.1485586 84.7491481 26.8921499 75.1597949 26.8921499 75.1597949 38.4108925 70.8731772 38.4108925"></polygon>
                <path d="M95.3175943,30.4506186 C95.6096767,34.4821785 98.4399963,35.2802628 99.8428146,35.2802628 C102.263062,35.3285888 104.268147,33.4135586 104.33101,30.993645 C104.33101,28.0152273 101.788659,27.3282166 98.3371504,26.0570411 C96.2308661,25.3659166 91.5452062,23.8026586 91.5452062,18.7549811 C91.5452062,13.7073036 95.7947994,11.0168545 100.007368,11.0168545 C103.458877,11.0168545 107.782519,12.9092193 108.107512,18.4217604 L103.89083,18.4217604 C103.598747,16.969576 102.944647,14.6452583 99.8592699,14.6452583 C97.6789365,14.6452583 95.7906855,16.1344672 95.7906855,18.4217604 C95.7906855,21.0381604 97.7900101,21.6922605 102.109539,23.2925429 C105.449974,24.7077027 108.57649,26.4149449 108.57649,30.7714979 C108.57649,35.1280508 105.635097,38.9086667 99.8962945,38.9086667 C94.5483069,38.9086667 91.1420502,35.6381666 91.0680011,30.4465048 L95.3175943,30.4506186 Z" id="Path" fill="#000000"></path>
                <path d="M123.468578,11.5269702 C127.644122,11.5269702 129.425414,12.0741105 131.021582,13.345286 C132.909833,14.7974703 134,17.3768459 134,19.9521076 C134,22.5273693 132.872809,25.2178184 131.202591,26.563043 C129.388389,27.9823166 127.570073,28.5623676 123.86762,28.5623676 L120.091118,28.5623676 L120.091118,38.4026648 L115.804501,38.4026648 L115.804501,11.5269702 L123.468578,11.5269702 Z M120.091118,24.7858656 L123.793571,24.7858656 C125.500814,24.7858656 126.809014,24.6007429 127.969116,23.8767077 C129.059282,23.2596322 129.894391,21.8403586 129.894391,20.0261566 C129.894391,18.2119547 129.071624,16.8297056 127.936205,16.1756056 C126.734965,15.4515703 125.430878,15.3034722 123.649587,15.3034722 L120.091118,15.3034722 L120.091118,24.7858656 Z" id="Shape" fill="#000000"></path>
            </g>
        </g>
    </g>
</svg>