<?xml version="1.0" encoding="UTF-8"?><svg id="Layer_2" xmlns="http://www.w3.org/2000/svg" viewBox="0 0 625.34 157.77"><defs><style>.cls-1{fill:#b1bbc2;}.cls-2{fill:#62bb46;}.cls-3{fill:#3d5567;}.cls-4{fill:#2c753a;}</style></defs><g id="Layer_1-2"><path class="cls-2" d="M172.75,65.08c-.5.36-2.68,2.01-3.26,2.49-6.42,4.79-11.82,10.75-16.31,17.8-2.48,3.89-4.68,8.11-6.62,12.65,5.3-1.06,10.29-3,14.8-5.66.14-.17.49-1.28.54-1.41.12-.27.24-.54.36-.81.23-.51.47-1.03.71-1.54.49-1.02.99-2.02,1.52-3.01,1.06-1.98,2.21-3.92,3.43-5.8,1.29-1.97,2.63-3.97,4.12-5.8,2-2.45,4.27-4.67,6.64-6.76,1.08-.95,3.35-2.62,4.49-3.52.48-1.78.85-3.6,1.12-5.46-4.05,1.91-7.92,4.21-11.55,6.83Z"/><path class="cls-2" d="M142.8,75.39c0,3.68,2.93,6.68,6.52,6.68s6.52-3,6.52-6.68-2.93-6.68-6.52-6.68-6.52,3-6.52,6.68Z"/><path class="cls-2" d="M132.64,37.12c-2.97,0-5.39,2.48-5.39,5.52s2.42,5.52,5.39,5.52,5.39-2.48,5.39-5.52-2.42-5.52-5.39-5.52Z"/><path class="cls-2" d="M170.69,25.14c-2.19.59-4.26,1.29-6.21,2.07-16.36,6.42-28.1,19.26-34.99,37.44,3.23,2.51,6.4,5.5,9.09,8.43.79-4.48,1.91-8.75,3.33-12.79,5.43-15.43,15.38-27.41,29.02-33.93h0s1.69-.91,5.54-1.96c-.1-.15-.21-.3-.31-.45-1.81.31-3.56.68-5.23,1.13-.07.02-.15.04-.22.06Z"/><path class="cls-2" d="M105.7,18.21c2.85,4.01,4.11,9.04,4.56,10.62,0,0,2.54,1.64,3.45,2.32l3.09-7.39c-2.13-4.05-4.76-7.63-7.85-10.76-1.55,1.15-3.03,2.38-4.43,3.7.5.61.83,1,1.17,1.51Z"/><path class="cls-2" d="M104.34,32.02c3.63,2.87,7.35,6.63,10.72,11.54,3.07,4.46,5.85,9.88,8.03,16.45l.22.14.76.49h0c.6.39,1.43.93,2.17,1.43.53.35,1,.69,1.32.93l.38-.93,3.48-8.39v-.02c-1.35-2.57-2.87-4.98-4.54-7.25-.1-.14-.2-.28-.3-.42-5.62-7.5-12.92-13.37-21.69-17.8-2.34-1.09-4.86-2.07-7.56-2.88-.34.51-.66,1.04-.98,1.57,2.49,1.27,5.21,2.95,7.99,5.14Z"/><path class="cls-2" d="M147.71,89.57c-21.19-38.09-57.13-37.85-57.13-37.85,0,0,33.09,2.86,47.61,47.14l.03.08c1.81-.04,3.59-.18,5.35-.41.83-1.92,4.14-8.95,4.14-8.95Z"/><path class="cls-2" d="M115.35,32.36c2.61,2.03,5.18,4.45,7.36,6.82,2.68-15.28,10.05-27.66,21.18-34.99-1.38-.19-2.77-.33-4.18-.4-11.18,5.62-19.34,15.36-24.35,28.56Z"/><path class="cls-2" d="M118.34,9.79c-2.42,0-4.39,1.99-4.39,4.42s1.97,4.43,4.39,4.43,4.39-1.99,4.39-4.43-1.97-4.42-4.39-4.42Z"/><path class="cls-3" d="M189.07,51.33c0,28.35-23.22,51.33-51.87,51.33s-51.87-22.98-51.87-51.33S108.55,0,137.2,0s51.87,22.98,51.87,51.33ZM137.2,3.73c-26.29,0-47.6,21.31-47.6,47.6s21.31,47.6,47.6,47.6,47.6-21.31,47.6-47.6S163.49,3.73,137.2,3.73Z"/><path class="cls-3" d="M2.31,155.3h7.37v2.05H0v-16.52h2.31v14.46Z"/><path class="cls-3" d="M26.08,157.77c-5.01,0-8.72-3.62-8.72-8.7s3.71-8.65,8.72-8.65,8.77,3.5,8.77,8.65-3.73,8.7-8.77,8.7ZM26.08,142.45c-3.8,0-6.23,3.01-6.23,6.63s2.45,6.62,6.23,6.62,6.28-2.94,6.28-6.62-2.43-6.63-6.28-6.63Z"/><path class="cls-3" d="M52.84,157.77c-5.01,0-8.72-3.62-8.72-8.7s3.71-8.65,8.72-8.65,8.77,3.5,8.77,8.65-3.73,8.7-8.77,8.7ZM52.84,142.45c-3.8,0-6.23,3.01-6.23,6.63s2.45,6.62,6.23,6.62,6.27-2.94,6.27-6.62-2.43-6.63-6.27-6.63Z"/><path class="cls-3" d="M74.06,148.12h.05l7.37-7.28h3.2l-8.02,7.56,8.51,8.96h-3.31l-7.75-8.54h-.05v8.54h-2.31v-16.52h2.31v7.28Z"/><path class="cls-3" d="M96.56,157.35h-2.31v-16.52h2.31v16.52Z"/><path class="cls-3" d="M119.18,154.04h.05v-13.2h2.31v16.52h-2.91l-8.72-13.48h-.05v13.48h-2.31v-16.52h3.01l8.63,13.2Z"/><path class="cls-3" d="M144.98,144.24c-.98-1.07-2.59-1.8-4.48-1.8-3.87,0-6.3,3.01-6.3,6.63s2.43,6.62,6.37,6.62c1.54,0,2.89-.3,3.85-.82v-4.6h-3.66v-1.96h5.95v8c-1.73.93-3.78,1.45-6.2,1.45-5.16,0-8.82-3.62-8.82-8.7s3.78-8.65,8.79-8.65c2.61,0,4.76.84,6.11,2.15l-1.61,1.68Z"/><path class="cls-3" d="M176.28,157.35h-2.31v-14.49h-5.29v-2.03h12.9v2.03h-5.29v14.49Z"/><path class="cls-3" d="M198.01,157.77c-5.01,0-8.72-3.62-8.72-8.7s3.71-8.65,8.72-8.65,8.77,3.5,8.77,8.65-3.73,8.7-8.77,8.7ZM198.01,142.45c-3.8,0-6.23,3.01-6.23,6.63s2.45,6.62,6.23,6.62,6.27-2.94,6.27-6.62-2.43-6.63-6.27-6.63Z"/><path class="cls-3" d="M220.86,154h.05l3.87-13.16h2.54l3.85,13.16h.05l3.64-13.16h2.45l-4.85,16.52h-2.4l-4.01-13.27h-.05l-4.01,13.27h-2.4l-4.85-16.52h2.5l3.64,13.16Z"/><path class="cls-3" d="M246.16,157.35h-2.57l7.16-16.52h2.1l7.09,16.52h-2.61l-1.68-4.06h-7.84l-1.66,4.06ZM248.63,151.27h6.18l-3.08-7.74-3.1,7.74Z"/><path class="cls-3" d="M271.42,157.35h-2.31v-16.52h5.29c3.2,0,5.88,1.21,5.88,4.57,0,2.43-1.66,3.97-4.01,4.36l4.62,7.58h-2.8l-4.2-7.35h-2.47v7.35ZM271.42,148.07h2.66c2.17,0,3.87-.68,3.87-2.66s-1.7-2.61-3.71-2.61h-2.82v5.27Z"/><path class="cls-3" d="M290.45,140.84h5.67c4.22,0,8.91,2.4,8.91,8.26s-4.69,8.26-8.91,8.26h-5.67v-16.52ZM292.76,155.32h2.89c3.99,0,6.9-2.29,6.9-6.23s-2.92-6.25-6.9-6.25h-2.89v12.48Z"/><path class="cls-3" d="M338.2,157.35h-10.78v-2.17l6.58-6.53c1-1.03,1.82-2.1,1.82-3.5,0-1.73-1.31-2.85-2.94-2.85s-2.82,1.21-3.1,2.87l-2.22-.37c.4-2.52,2.52-4.38,5.34-4.38s5.23,1.61,5.23,4.69c0,2.12-1.21,3.57-2.66,4.99l-5.37,5.23h8.09v2.03Z"/><path class="cls-3" d="M358.92,149.1c0,4.83-1.7,8.68-5.62,8.68s-5.64-3.85-5.64-8.68,1.7-8.68,5.64-8.68,5.62,3.87,5.62,8.68ZM349.96,149.1c0,2.8.61,6.77,3.33,6.77s3.31-3.97,3.31-6.77-.63-6.79-3.31-6.79-3.33,4.01-3.33,6.79Z"/><path class="cls-3" d="M378.48,142.84h-6.81l-.14,4.34c.61-.21,1.44-.3,2.12-.3,3.17,0,5.53,2.01,5.53,5.2,0,3.45-2.47,5.69-5.76,5.69-2.57,0-4.38-1.31-5.27-3.31l2.05-.82c.51,1.33,1.75,2.22,3.22,2.22,1.94,0,3.45-1.42,3.45-3.55,0-2.5-1.82-3.62-3.87-3.62-1.24,0-2.63.37-3.66.91l.23-8.77h8.91v2.01Z"/><path class="cls-3" d="M400,149.1c0,4.83-1.7,8.68-5.62,8.68s-5.64-3.85-5.64-8.68,1.7-8.68,5.64-8.68,5.62,3.87,5.62,8.68ZM391.04,149.1c0,2.8.61,6.77,3.34,6.77s3.31-3.97,3.31-6.77-.63-6.79-3.31-6.79-3.34,4.01-3.34,6.79Z"/><path class="cls-2" d="M210.93,101.33c1.5-.84,2.43-2.15,2.43-4.21v-55.2c0-2.15-.94-3.46-2.43-4.21h16.94c-1.59.75-2.43,2.06-2.43,4.21v55.2c0,2.06.84,3.37,2.43,4.21h-16.94Z"/><path class="cls-2" d="M268.47,42.76c-2.9,0-18.06-.38-18.06-.38v21.52h14.6c1.5,0,2.99-1.5,3.46-2.62v9.92c-.47-1.31-1.97-2.71-3.46-2.71h-14.6v28.63c0,2.25.94,3.27,2.71,4.21h-17.4c1.78-.94,2.81-1.97,2.81-4.21v-55.2c0-2.15-1.12-3.46-2.81-4.21h39.77l.47,9.08c-1.12-2.25-3.09-3.93-7.48-4.02Z"/><path class="cls-2" d="M311.6,71.67c-3.09,1.4-11.42,3.27-18.62.65v24.8c0,2.06,1.03,3.37,2.43,4.21h-16.94c1.5-.84,2.62-2.15,2.62-4.21v-55.2c0-2.15-1.12-3.46-2.62-4.21h21.24c18.81,0,23.39,9.73,23.39,17.4,0,10.2-8.8,15.35-11.51,16.56ZM297.75,42.11c-2.81,0-4.77.09-4.77.09v26.29c.47.28,2.34.47,3.65.47,4.96,0,14.41-1.78,14.41-13.85,0-7.02-4.02-13-13.29-13Z"/><path class="cls-2" d="M374.84,101.52c-3.56.09-6.64-2.15-8.33-4.4-4.21-5.9-8.33-12.72-11.7-17.97-2.43-3.74-4.59-7.77-8.61-7.77-1.12,0-4.12.19-4.12.19v25.54c0,2.06,1.03,3.37,2.62,4.21h-16.94c1.5-.84,2.43-2.15,2.43-4.21v-55.2c0-2.15-.94-3.46-2.43-4.21h20.21c19.37,0,23.77,9.45,23.77,15.72,0,10.1-9.17,15.16-15.81,15.62,6.36.66,9.17,4.96,10.57,7.02,0,0,11.32,17.68,14.5,21.52,1.87,2.15,5.99,3.75,5.99,3.75l-12.16.19ZM347.52,42.2c-2.81,0-5.43.19-5.43.19v24.42s2.62.19,4.21.19c6.36,0,13.1-3.56,13.1-13.01,0-4.3-2.62-11.79-11.88-11.79Z"/><path class="cls-2" d="M383.06,101.33c1.5-.84,2.43-2.15,2.43-4.21v-55.2c0-2.15-.94-3.46-2.43-4.21h16.94c-1.59.75-2.43,2.06-2.43,4.21v55.2c0,2.06.84,3.37,2.43,4.21h-16.94Z"/><path class="cls-3" d="M222.15,23.11h-3.08v-9.41l-8.15-12.36h3.75l6.03,9.84,6.06-9.84h3.54l-8.15,12.36v9.41Z"/><path class="cls-3" d="M241.96,20.4h11.38v2.71h-14.42V1.33h13.96v2.68h-10.92v6.52h10.27v2.61h-10.27v7.26Z"/><path class="cls-3" d="M264.98,23.11h-3.38l9.44-21.77h2.77l9.35,21.77h-3.44l-2.21-5.35h-10.33l-2.18,5.35ZM268.24,15.08h8.15l-4.06-10.21-4.09,10.21Z"/><path class="cls-3" d="M295.07,23.11h-3.04V1.33h6.98c4.21,0,7.75,1.6,7.75,6.03,0,3.2-2.18,5.23-5.29,5.75l6.09,9.99h-3.69l-5.54-9.69h-3.26v9.69ZM295.07,10.87h3.51c2.86,0,5.1-.89,5.1-3.51s-2.24-3.44-4.89-3.44h-3.72v6.95Z"/><path class="cls-3" d="M327.64,5.36c-.86-1.2-2.43-2.03-4.24-2.03-1.97,0-4.24,1.08-4.24,3.54s2,3.01,4.46,3.81c2.92.92,6.4,2.03,6.4,6.36s-3.66,6.61-7.53,6.61c-2.74,0-5.5-1.08-7.16-3.17l2.37-2c1.02,1.51,2.86,2.55,4.86,2.55s4.37-1.14,4.37-3.72-2.4-3.35-5.17-4.21c-2.77-.86-5.66-2.12-5.66-6.12,0-4.34,3.87-6.21,7.47-6.21,2.52,0,4.89.98,6.24,2.49l-2.15,2.09Z"/><path class="cls-3" d="M364.69,23.66c-6.61,0-11.5-4.77-11.5-11.47s4.89-11.41,11.5-11.41,11.56,4.61,11.56,11.41-4.92,11.47-11.56,11.47ZM364.69,3.46c-5.01,0-8.21,3.97-8.21,8.73s3.23,8.73,8.21,8.73,8.27-3.87,8.27-8.73-3.2-8.73-8.27-8.73Z"/><path class="cls-3" d="M389.45,23.11h-3.04V1.33h13.59v2.68h-10.55v6.76h9.87v2.61h-9.87v9.72Z"/><path class="cls-3" d="M20.47,99c-5.11-2.45-9.49-5.82-13.13-10.13-3.64-4.31-6.09-9.13-7.33-14.47h4.13c2.13,7.2,6.22,13.09,12.27,17.67,6.05,4.58,12.75,6.87,20.13,6.87,6.13,0,11.78-1.54,16.93-4.6,5.16-3.07,9.25-7.2,12.27-12.41,3.02-5.19,4.53-10.86,4.53-17s-1.4-11.82-4.2-17.07c-2.8-5.24-6.58-9.4-11.34-12.46-4.75-3.07-9.93-4.6-15.53-4.6s-10.49,1.33-15.2,4c-4.71,2.67-8.89,6.36-12.53,11.07h-4.67L11.47,1.33h52v3.87H15.07l-3.6,34.27c3.47-4,7.6-7.07,12.4-9.21,4.8-2.13,9.91-3.2,15.34-3.2,6.49,0,12.42,1.71,17.8,5.14,5.38,3.42,9.64,8.02,12.8,13.8,3.15,5.78,4.74,12.09,4.74,18.94s-1.71,13.16-5.13,18.94c-3.42,5.78-8.05,10.35-13.87,13.73-5.82,3.38-12.15,5.07-19,5.07-5.6,0-10.96-1.22-16.07-3.67Z"/><rect class="cls-2" x="0" y="123.19" width="400" height="3.04"/><path class="cls-4" d="M553.62,52.41c-1.47-1.89-4.99-5-6.84-6.84-2.84-2.84-3.57-3.68-3.57-8.52v-20.61c0-2.95-4.52-2.52-4.52.11,0,0-.32,35.86,0,38.91.31,3.05-1.2,5.43,3.68,8.52,5.39,3.42,13.14,5.68,13.14,5.68,0,0,.1-7.88.21-10.83.11-2.94-.63-4.52-2.1-6.41M551.34,63.62s-.01.03-.01.03c-7.56-3.08-8.88-2.48-7.94-13.96,8.93,5.47,8.31,7.48,7.95,13.93"/><path class="cls-4" d="M560.21,58.83c.11,2.95.21,10.83.21,10.83,0,0,7.75-2.26,13.15-5.68,4.88-3.09,3.37-5.47,3.68-8.52.32-3.05,0-38.92,0-38.92,0-2.63-4.52-3.05-4.52-.1v20.61c0,4.84-.73,5.68-3.57,8.52-1.84,1.84-5.36,4.94-6.84,6.83-1.47,1.89-2.21,3.47-2.1,6.42M572.54,49.69c.94,11.49-.38,10.89-7.94,13.97,0,0-.01-.01-.01-.03-.36-6.45-.98-8.47,7.95-13.94"/><path class="cls-4" d="M563.94,31.45c-2.64-4.71,0,0-3.64-6.13V2.57c0-3.56-4.49-3.28-4.49,0l.05,22.72s-3.83,6.45-4.9,9.02c-1.07,2.57-2.51,5.65,1.12,9.79.28.32.73,1.19,6.04,6.16,0,0,.11-.12.11-.12,0,0-.03-.03,4.64-4.63,5.78-5.71,3.71-9.35,1.07-14.05M558.09,44.71c-8.71-4.66-2.48-10.98,0-15.16l.22.35c6.4,9.58,4.67,11.02-.22,14.81"/><path class="cls-4" d="M555.38,80.22c-.22-4.47-1.8-8.41-10.94-11.84-7.68-2.88-18.54-3.5-26.43-4.76-7.89-1.27-20.99-3.43-27.54-9.68,4.91,16.32,17.21,23.16,29.7,25.83,14.14,3.03,26.82,4.3,34.53,9.66l.78.54c-.43-3.77.12-5.29-.1-9.75M551.47,82.39c-6.76-2.6-11.28-3.26-23.45-5.72-12.18-2.45-19.46-4.69-26.05-11.62,10.57,4.06,27.52,5.53,36.76,7.49,9.24,1.96,11.76,4.35,12.75,9.84h0Z"/><path class="cls-4" d="M560.33,89.97l.78-.54c7.71-5.36,20.39-6.63,34.53-9.66,12.49-2.67,24.79-9.5,29.7-25.83-6.55,6.25-19.65,8.41-27.54,9.68-7.89,1.26-18.75,1.89-26.42,4.77-9.14,3.42-10.72,7.37-10.94,11.83-.22,4.47.33,5.99-.11,9.75M564.34,82.38c.99-5.49,3.51-7.88,12.75-9.84,9.24-1.96,26.18-3.43,36.76-7.49-6.58,6.93-13.87,9.17-26.04,11.62-12.18,2.45-16.69,3.12-23.46,5.72h0Z"/><path class="cls-4" d="M554.91,100.97c.1-8.78-4.93-11.25-12.43-13.22-7.49-1.97-17.95-3.45-26.83-6.02-8.88-2.57-13.81-4.24-19.83-10.75,1.28,12.73,10.16,21.7,21.11,25.55,10.95,3.85,10.36,3.06,16.28,4.54,5.92,1.48,7,3.65,7,7.3v7.49h14.7c.3-16.96-.1-6.12,0-14.9M550.64,111.1h-5.99s.13-2.48-.21-6.74c-.47-5.63-7.03-6.12-17.82-9.12-7.4-2.06-17.07-4.72-21.4-12.13,2.63,1.15,7.89,3.38,16.49,5.15,8.18,1.68,12.85,2.64,20.38,4.2,7.16,1.49,8.56,5.88,8.56,10.71v7.93Z"/><path class="cls-4" d="M560.63,115.89h14.7v-7.5c0-3.65,1.08-5.82,7-7.3,5.92-1.48,5.33-.7,16.28-4.54,10.95-3.85,19.83-12.83,21.11-25.55-6.02,6.51-10.95,8.19-19.83,10.75-8.87,2.56-19.33,4.05-26.83,6.02-7.5,1.97-12.53,4.44-12.43,13.22.1,8.78-.3-2.07,0,14.89M564.9,103.2c0-4.83,1.4-9.22,8.56-10.71,7.53-1.57,12.2-2.52,20.37-4.2,8.59-1.77,13.87-3.99,16.49-5.15-4.32,7.41-13.99,10.07-21.4,12.13-10.79,3-17.35,3.5-17.82,9.12-.35,4.26-.21,6.74-.21,6.74h-5.99v-7.93Z"/><path class="cls-4" d="M525.23,156.96c-1.89.44-3.92.81-5.88.81-8.35,0-14.16-4.17-14.16-12.9s5.4-13.79,14.16-13.79c1.71,0,3.96.33,5.85,1.07l-.37,4.36c-1.96-1.11-3.74-1.37-5.58-1.37-5.33,0-8.65,4.06-8.65,9.35s3.26,9.2,8.76,9.2c2.04,0,4.44-.44,5.66-1.07l.22,4.33Z"/><path class="cls-4" d="M549.18,136.52c-1.99-.92-4.58-1.37-6.66-1.37-6.02,0-9.35,4.07-9.35,9.35s3.25,9.21,8.76,9.21c1.4,0,2.51-.15,3.4-.37v-6.73h-5.47v-4.07h10.42v13.9c-2.74.74-5.58,1.33-8.35,1.33-8.36,0-14.16-4.18-14.16-12.9s5.4-13.79,14.16-13.79c2.99,0,5.36.41,7.58,1.07l-.33,4.36Z"/><rect class="cls-4" x="555.28" y="131.53" width="5.18" height="25.8"/><path class="cls-4" d="M579.97,147.35h-7.54l3.73-10.65h.07l3.73,10.65ZM563.34,157.33h5.36l2.26-5.92h10.46l2.22,5.92h5.73l-10.13-25.8h-5.84l-10.06,25.8Z"/><path class="cls-4" d="M597.42,135.59h1.7c2.59,0,5.47.26,5.47,3.36s-2.92,3.59-5.47,3.59h-1.7v-6.95ZM592.25,157.33h5.18v-10.72h1.66c2.18,0,2.85.75,3.58,2.66l3.11,8.06h5.77l-4.14-10.09c-.52-1.15-1.33-2.55-2.73-2.66v-.07c3.29-.44,5.32-2.96,5.32-5.99,0-7.17-6.62-6.99-12.16-6.99h-5.58v25.8Z"/><rect class="cls-1" x="443.72" width="3.04" height="157.77"/></g></svg>